<svg xmlns="http://www.w3.org/2000/svg" id="mainsvg" width="799.753" height="427.341" viewBox="-58.332 -10 727.048 388.492"><defs><marker id="arrow" fill="#000" markerHeight="5" markerWidth="5" orient="auto-start-reverse" refX="10" refY="5" viewBox="0 0 10 10"><path d="M 0 0 L 10 5 L 0 10 z"/></marker><filter id="shadowOLD" width="250%" height="250%" x="-50%" y="-50%"><feDropShadow dx="1" dy="1" flood-color="#000" flood-opacity=".3" stdDeviation="2"/></filter><filter id="shadow-path" width="727.048" height="388.492" x="-58.332" y="-10" filterUnits="userSpaceOnUse"><feDropShadow dx="1" dy="1" flood-color="#000" flood-opacity=".1" stdDeviation="1"/></filter><filter id="shadow" width="827.048" height="488.492" x="-58.332" y="-10" filterUnits="userSpaceOnUse"><feDropShadow dx="1" dy="1" flood-color="#000" flood-opacity=".1" stdDeviation="1"/></filter></defs><rect width="727.048" height="388.492" x="-58.332" y="-10" fill="#fff"/><g transform="translate(0, 0)"><rect width="66.969" height="34" fill="#fff" stroke="#000" stroke-width="2" rx="3" transform="translate(0, 0)"/><text fill="#000" alignment-baseline="middle" font-family="Arial" font-size="16" font-weight="normal" transform="translate(8, 8)"><tspan x="0" dy="16" font-family="Arial" font-size="16" font-weight="normal">START</tspan></text></g><g transform="translate(-48.33203125, 62)"><rect width="163.633" height="34" fill="#fff" stroke="#000" stroke-width="2" rx="3" transform="translate(0, 0)"/><text fill="#000" alignment-baseline="middle" font-family="Arial" font-size="16" font-weight="normal" transform="translate(8, 8)"><tspan x="0" dy="16" font-family="Arial" font-size="16" font-weight="normal">receive a transaction</tspan></text></g><g><path fill="#fff" stroke="#000" stroke-dasharray="none" stroke-width="2" d="M 79.24609375,0 L 158.4921875 79.24609375 L 79.24609375 158.4921875 L 0 79.24609375 Z" transform="translate(-45.76171875, 124)"/><g transform="translate(-45.76171875, 124) translate(17, 62.24609375)"><rect width="124.492" height="34" fill="none" stroke="#000" stroke-width="0" rx="2" transform="translate(0, 0)"/><text fill="#000" alignment-baseline="middle" font-family="Arial" font-size="16" font-weight="normal" transform="translate(8, 8)"><tspan x="0" dy="16" font-family="Arial" font-size="16" font-weight="normal">verify signature</tspan></text></g></g><g><path fill="#fff" stroke="#000" stroke-dasharray="none" stroke-width="2" d="M 50.78515625,0 L 101.5703125 50.78515625 L 50.78515625 101.5703125 L 0 50.78515625 Z" transform="translate(159.4287109375, 152.4609375)"/><g transform="translate(159.4287109375, 152.4609375) translate(17, 33.78515625)"><rect width="67.57" height="34" fill="none" stroke="#000" stroke-width="0" rx="2" transform="translate(0, 0)"/><text fill="#000" alignment-baseline="middle" font-family="Arial" font-size="16" font-weight="normal" transform="translate(8, 8)"><tspan x="0" dy="16" font-family="Arial" font-size="16" font-weight="normal">verify 1</tspan></text></g></g><g><path fill="#fff" stroke="#000" stroke-dasharray="none" stroke-width="2" d="M 50.78515625,0 L 101.5703125 50.78515625 L 50.78515625 101.5703125 L 0 50.78515625 Z" transform="translate(307.697265625, 152.4609375)"/><g transform="translate(307.697265625, 152.4609375) translate(17, 33.78515625)"><rect width="67.57" height="34" fill="none" stroke="#000" stroke-width="0" rx="2" transform="translate(0, 0)"/><text fill="#000" alignment-baseline="middle" font-family="Arial" font-size="16" font-weight="normal" transform="translate(8, 8)"><tspan x="0" dy="16" font-family="Arial" font-size="16" font-weight="normal">verify 2</tspan></text></g></g><g transform="translate(455.9658203125, 186.24609375)"><rect width="202.75" height="34" fill="#fff" stroke="#000" stroke-width="2" rx="3" transform="translate(0, 0)"/><text fill="#000" alignment-baseline="middle" font-family="Arial" font-size="16" font-weight="normal" transform="translate(8, 8)"><tspan x="0" dy="16" font-family="Arial" font-size="16" font-weight="normal">check transaction success</tspan></text></g><g transform="translate(266.880859375, 334.4921875)"><rect width="183.203" height="34" fill="#fff" stroke="#000" stroke-width="2" rx="3" transform="translate(0, 0)"/><text fill="#000" alignment-baseline="middle" font-family="Arial" font-size="16" font-weight="normal" transform="translate(8, 8)"><tspan x="0" dy="16" font-family="Arial" font-size="16" font-weight="normal">check transaction failed</tspan></text></g><path fill="none" stroke="#000" stroke-dasharray="none" stroke-width="2" marker-end="url(#arrow)" d="M 33.484375,34 L 33.484375 48 L 33.484375 62"/><path fill="none" stroke="#000" stroke-dasharray="none" stroke-width="2" marker-end="url(#arrow)" d="M 33.484375,96 L 33.484375 110 L 33.484375 124"/><path fill="none" stroke="#000" stroke-dasharray="none" stroke-width="2" marker-end="url(#arrow)" d="M 112.73046875,203.24609375 L 126.73046875 203.24609375 L 159.4287109375 203.24609375"/><path fill="none" stroke="#000" stroke-dasharray="none" stroke-width="2" marker-end="url(#arrow)" d="M 260.9990234375,203.24609375 L 274.9990234375 203.24609375 L 307.697265625 203.24609375"/><path fill="none" stroke="#000" stroke-dasharray="none" stroke-width="2" marker-end="url(#arrow)" d="M 409.267578125,203.24609375 L 423.267578125 203.24609375 L 455.9658203125 203.24609375"/><path fill="none" stroke="#000" stroke-dasharray="none" stroke-width="2" marker-end="url(#arrow)" d="M 358.482421875,254.03125 L 358.482421875 320.4921875 L 358.482421875 334.4921875"/><path fill="none" stroke="#000" stroke-dasharray="none" stroke-width="2" marker-end="url(#arrow)" d="M 210.2138671875,254.03125 L 210.2138671875 320.4921875 L 358.482421875 320.4921875 L 358.482421875 334.4921875"/><path fill="none" stroke="#000" stroke-dasharray="none" stroke-width="2" marker-end="url(#arrow)" d="M 33.484375,282.4921875 L 33.484375 320.4921875 L 358.482421875 320.4921875 L 358.482421875 334.4921875"/><g transform="translate(114.73046875, 176.24609375)"><rect width="18.698" height="24" fill="#fff" stroke="none" stroke-width="0" rx="2" transform="translate(0, 0)"/><text fill="#000" alignment-baseline="middle" font-family="Arial" font-size="14" font-weight="normal" transform="translate(4, 4)"><tspan x="0" dy="14" font-family="Arial" font-size="14" font-weight="normal">✓</tspan></text></g><g transform="translate(35.484375, 284.4921875)"><rect width="17.338" height="24" fill="#fff" stroke="none" stroke-width="0" rx="2" transform="translate(0, 0)"/><text fill="#000" alignment-baseline="middle" font-family="Arial" font-size="14" font-weight="normal" transform="translate(4, 4)"><tspan x="0" dy="14" font-family="Arial" font-size="14" font-weight="normal">X</tspan></text></g><g transform="translate(262.9990234375, 176.24609375)"><rect width="18.698" height="24" fill="#fff" stroke="none" stroke-width="0" rx="2" transform="translate(0, 0)"/><text fill="#000" alignment-baseline="middle" font-family="Arial" font-size="14" font-weight="normal" transform="translate(4, 4)"><tspan x="0" dy="14" font-family="Arial" font-size="14" font-weight="normal">✓</tspan></text></g><g transform="translate(212.2138671875, 256.03125)"><rect width="17.338" height="24" fill="#fff" stroke="none" stroke-width="0" rx="2" transform="translate(0, 0)"/><text fill="#000" alignment-baseline="middle" font-family="Arial" font-size="14" font-weight="normal" transform="translate(4, 4)"><tspan x="0" dy="14" font-family="Arial" font-size="14" font-weight="normal">X</tspan></text></g><g transform="translate(411.267578125, 176.24609375)"><rect width="18.698" height="24" fill="#fff" stroke="none" stroke-width="0" rx="2" transform="translate(0, 0)"/><text fill="#000" alignment-baseline="middle" font-family="Arial" font-size="14" font-weight="normal" transform="translate(4, 4)"><tspan x="0" dy="14" font-family="Arial" font-size="14" font-weight="normal">✓</tspan></text></g><g transform="translate(360.482421875, 256.03125)"><rect width="17.338" height="24" fill="#fff" stroke="none" stroke-width="0" rx="2" transform="translate(0, 0)"/><text fill="#000" alignment-baseline="middle" font-family="Arial" font-size="14" font-weight="normal" transform="translate(4, 4)"><tspan x="0" dy="14" font-family="Arial" font-size="14" font-weight="normal">X</tspan></text></g></svg>